<?xml version="1.0" encoding="UTF-8" standalone="no"?>
<svg
   width="168"
   height="45"
   viewBox="0 0 168 45"
   fill="none"
   version="1.1"
   id="svg806"
   sodipodi:docname="login - senha.svg"
   inkscape:version="1.2.1 (9c6d41e410, 2022-07-14)"
   xmlns:inkscape="http://www.inkscape.org/namespaces/inkscape"
   xmlns:sodipodi="http://sodipodi.sourceforge.net/DTD/sodipodi-0.dtd"
   xmlns="http://www.w3.org/2000/svg"
   xmlns:svg="http://www.w3.org/2000/svg">
  <defs
     id="defs810" />
  <sodipodi:namedview
     id="namedview808"
     pagecolor="#ffffff"
     bordercolor="#000000"
     borderopacity="0.25"
     inkscape:showpageshadow="2"
     inkscape:pageopacity="0.0"
     inkscape:pagecheckerboard="0"
     inkscape:deskcolor="#d1d1d1"
     showgrid="false"
     inkscape:zoom="1.3972973"
     inkscape:cx="219.70986"
     inkscape:cy="184.64217"
     inkscape:window-width="1920"
     inkscape:window-height="1009"
     inkscape:window-x="1358"
     inkscape:window-y="-8"
     inkscape:window-maximized="1"
     inkscape:current-layer="svg806" />
  <path
     d="m 19.15894,22.620613 4.16,-21.0209998 h -3.5048 l -4.1565,21.0209998 4.1496,20.979 h 3.5048 z"
     fill="#430099"
     id="path780" />
  <path
     d="M 4.6814402,22.620613 15.78864,1.5996132 h -3.8237 L 0.86464023,22.620613 11.94764,43.599613 h 3.8237 z"
     fill="#430099"
     id="path782" />
  <path
     d="m 35.42794,22.620613 -4.16,-21.0209998 h -3.5048 l 4.1634,21.0209998 -4.1565,20.979 h 3.5083 z"
     fill="#430099"
     id="path784" />
  <path
     d="M 50.22614,22.620613 39.12594,1.5996132 h -3.8238 l 11.1038,21.0209998 -11.083,20.979 h 3.8203 z"
     fill="#430099"
     id="path786" />
  <path
     d="m 152.52764,25.749213 3.813,-9.6915 3.872,9.6915 z m -1.11,2.856 h 9.894 l 1.858,4.7915 h 3.3 l -8.181,-20.419 h -3.765 l -8.24,20.419 h 3.241 z m -9.1,-15.6345 h -3.161 v 20.419 h 3.161 z m -9.706,20.419 v -20.419 h -4.414 l -6.437,15.7955 h -0.028 l -6.548,-15.7955 h -4.299 v 20.419 h 3.12 v -15.239 h 0.083 l 6.299,15.239 h 2.69 l 6.327,-15.295 h 0.055 v 15.295 z m -40.214,-20.419 v 20.419 h 13.038 v -2.912 h -9.894 v -6.0235 h 8.917 v -2.905 h -8.917 v -5.6665 h 9.794 v -2.912 z m -8.535,10.2235 c 0.016,1.4141 -0.369,2.8034 -1.109,4.004 -0.415,0.6143 -0.909,1.1698 -1.47,1.652 -1.137,0.9275 -2.915,1.5715 -4.968,1.5715 h -3.161 v -14.4725 h 3.189 c 2.052,0 3.831,0.644 4.968,1.624 0.8,0.6991 1.442,1.5638 1.882,2.5355 0.441,0.9716 0.669,2.0275 0.669,3.096 z m 3.328,0.0105 c -0.025,-2.0656 -0.641,-4.0798 -1.775,-5.7995 -0.894,-1.3108 -2.081,-2.3901 -3.466,-3.15 -1.721,-0.8665 -3.624,-1.2989 -5.547,-1.26 h -6.4133 v 20.419 h 6.4653 c 2.884,0 5.384,-0.896 7.02,-2.24 1.169,-0.9609 2.11,-2.1745 2.754,-3.5514 0.643,-1.3768 0.972,-2.8818 0.962,-4.4041 z m -23.7464,-10.2095 h -3.1616 v 20.419 h 3.1616 z"
     fill="#430099"
     id="path788" />
</svg>
